<?xml version="1.0" encoding="UTF-8" standalone="no"?>
<!-- Created with Inkscape (http://www.inkscape.org/) -->

<svg
   xmlns:dc="http://purl.org/dc/elements/1.1/"
   xmlns:cc="http://creativecommons.org/ns#"
   xmlns:rdf="http://www.w3.org/1999/02/22-rdf-syntax-ns#"
   xmlns:svg="http://www.w3.org/2000/svg"
   xmlns="http://www.w3.org/2000/svg"
   xmlns:sodipodi="http://sodipodi.sourceforge.net/DTD/sodipodi-0.dtd"
   xmlns:inkscape="http://www.inkscape.org/namespaces/inkscape"
   width="210mm"
   height="297mm"
   viewBox="0 0 210 297"
   version="1.1"
   id="svg3772"
   inkscape:version="0.92.2 (5c3e80d, 2017-08-06)"
   sodipodi:docname="logo4.svg">
  <defs
     id="defs3766" />
  <sodipodi:namedview
     id="base"
     pagecolor="#ffffff"
     bordercolor="#666666"
     borderopacity="1.0"
     inkscape:pageopacity="0.0"
     inkscape:pageshadow="2"
     inkscape:zoom="0.90015625"
     inkscape:cx="454.2103"
     inkscape:cy="1064.5211"
     inkscape:document-units="mm"
     inkscape:current-layer="layer1"
     showgrid="false"
     inkscape:window-width="1920"
     inkscape:window-height="1046"
     inkscape:window-x="-11"
     inkscape:window-y="-11"
     inkscape:window-maximized="1" />
  <metadata
     id="metadata3769">
    <rdf:RDF>
      <cc:Work
         rdf:about="">
        <dc:format>image/svg+xml</dc:format>
        <dc:type
           rdf:resource="http://purl.org/dc/dcmitype/StillImage" />
        <dc:title></dc:title>
      </cc:Work>
    </rdf:RDF>
  </metadata>
  <g
     inkscape:label="Layer 1"
     inkscape:groupmode="layer"
     id="layer1">
    <path
       style="fill:#ffffff;stroke-width:1;fill-opacity:1"
       d="m 114.56477,293.82012 c -1.19988,-0.85159 -1.84354,-1.69568 -2.81348,-3.68956 -1.19947,-2.46572 -1.62581,-5.08967 -1.79781,-11.06475 -0.11987,-4.16416 -0.0576,-5.83629 0.29821,-8.00639 0.58712,-3.58093 2.23266,-8.78383 4.3887,-13.87631 0.95284,-2.25056 2.36843,-5.7457 3.14574,-7.76699 0.77732,-2.02129 2.37078,-5.44697 3.54102,-7.61263 1.17025,-2.16566 2.65796,-5.35035 3.30603,-7.07706 0.64806,-1.72673 2.08555,-4.91616 3.19441,-7.08763 1.10886,-2.17147 2.92853,-5.9563 4.0437,-8.41072 1.11517,-2.45441 2.87571,-5.8801 3.91232,-7.61263 1.0366,-1.73253 2.81008,-5.13043 3.94108,-7.55089 4.06164,-8.69244 11.85318,-18.95606 15.1009,-19.89209 0.97731,-0.28167 1.31662,-0.2651 2.35059,0.11476 1.37585,0.50545 3.80811,2.81617 4.40092,4.18097 0.99388,2.28824 0.7415,5.56458 -0.74072,9.61576 -1.5404,4.21021 -12.01177,27.97178 -19.38221,43.98203 -6.37491,13.84771 -7.87724,17.00832 -11.41704,24.01918 -1.78597,3.53725 -3.34963,6.96602 -3.47482,7.61948 -0.12562,0.6558 -0.11735,2.18483 0.0184,3.41256 0.16815,1.52025 0.14756,2.70952 -0.0651,3.75679 -0.41318,2.03491 -2.98705,8.16478 -4.18433,9.96522 -2.0965,3.15271 -5.61936,4.50482 -7.7666,2.9809 z M 85.962523,275.25744 c -2.595903,-0.24218 -4.193894,-0.62399 -5.694937,-1.36064 -1.429388,-0.70148 -4.312055,-3.37339 -5.59568,-5.18659 -1.517843,-2.14403 -5.076648,-9.10565 -5.501931,-10.76269 -0.449121,-1.7499 -0.450423,-10.86836 -0.0022,-13.25648 0.181325,-0.96549 0.955007,-2.84493 1.999131,-4.85634 l 1.703333,-3.28131 4.786533,-4.5961 c 2.632604,-2.52785 5.483147,-5.48103 6.334569,-6.56261 2.494303,-3.16861 5.249764,-7.77474 6.882048,-11.50427 2.653418,-6.0627 2.95592,-8.0533 2.089908,-13.75253 -0.32301,-2.12572 -0.873861,-4.67543 -1.224104,-5.66604 -1.582222,-4.47497 -1.210093,-5.80122 3.439117,-12.25691 1.039764,-1.44378 2.992922,-4.24135 4.34034,-6.21682 2.47664,-3.63105 3.70026,-4.93964 4.61891,-4.93964 1.46629,0 3.24075,2.692 3.97976,6.03761 0.54661,2.47459 0.52503,11.70924 -0.0322,13.79197 -0.50258,1.87833 -3.46174,7.84697 -4.95671,9.99772 -0.58953,0.84812 -1.93455,2.78235 -2.98896,4.29832 -2.696914,3.87748 -4.148817,6.30676 -4.351225,7.28035 -0.145763,0.70108 -0.0398,0.96525 0.655716,1.63428 0.456268,0.43892 1.022867,0.79803 1.259114,0.79803 0.780178,0 2.570355,-1.84484 4.160385,-4.28742 2.09613,-3.22008 5.84446,-8.51304 7.74586,-10.93785 2.01992,-2.57592 4.69076,-6.4979 5.14769,-7.55907 0.27857,-0.64692 0.52774,-0.84015 1.07948,-0.83706 1.13757,0.007 1.3566,0.29036 1.8048,2.33999 0.7532,3.44438 3.09552,6.70003 6.7967,9.44685 0.8083,0.59989 1.8041,1.55495 2.21286,2.12237 2.14854,2.98242 0.57722,9.51482 -4.93261,20.5063 -1.56471,3.12141 -2.84491,5.74294 -2.84491,5.82564 0,0.2699 -5.6657,14.44439 -6.4202,16.06209 -0.40402,0.86627 -1.46951,3.64225 -2.36775,6.16886 -3.41266,9.59934 -4.2652,11.23743 -7.4312,14.27851 -4.341092,4.16979 -8.305409,6.64846 -11.584003,7.24288 -1.608988,0.29172 -1.865298,0.29115 -5.107894,-0.0113 z m 7.364043,-9.71973 c 4.029184,-1.31149 6.675764,-2.65688 8.650214,-4.3973 2.24364,-1.97769 3.23333,-3.62992 2.76572,-4.61717 -0.39793,-0.84014 -1.42589,-1.32294 -2.34456,-1.10114 -0.37874,0.0914 -1.52368,0.87381 -2.5443,1.73858 -1.974868,1.67334 -5.192237,3.40341 -8.541315,4.59292 -3.377155,1.19949 -4.489921,2.79282 -2.828473,4.05 0.975277,0.73798 1.917574,0.68625 4.842714,-0.26589 z m -52.254169,-5.32062 c -3.831113,-1.51604 -6.119689,-4.34114 -6.784461,-8.37497 -0.466756,-2.83228 0.0098,-4.80827 2.518228,-10.43862 0.676876,-1.5194 1.503603,-3.70474 1.837166,-4.85634 0.333562,-1.15159 1.067854,-3.33414 1.631763,-4.8501 0.56391,-1.51597 1.664311,-4.64634 2.445346,-6.95638 1.744177,-5.15872 3.150052,-8.02948 4.793138,-9.78748 0.994799,-1.06437 1.994262,-1.70447 4.818592,-3.08598 5.921314,-2.89642 5.870015,-2.88599 16.057931,-3.26884 6.750189,-0.25368 7.79145,-0.42037 12.257836,-1.96234 2.306784,-0.79639 2.906245,-0.73699 4.094104,0.40568 1.478539,1.42231 1.185061,3.25267 -1.588197,9.90521 -2.763585,6.62931 -4.464195,8.69049 -13.218624,16.02136 -9.421099,7.88914 -10.750849,8.77772 -15.052861,10.05879 -1.500859,0.44693 -4.141,1.42805 -5.866989,2.18023 -1.725989,0.75219 -4.051049,1.70068 -5.166807,2.10774 -2.729627,0.99587 -4.384123,2.53137 -4.384123,4.06881 0,0.87855 0.193027,1.26424 1.113448,2.2248 1.201926,1.25434 1.853228,1.53151 4.680996,1.992 1.559023,0.2539 1.962398,0.43597 2.660618,1.20094 1.010579,1.10722 1.020828,1.40447 0.08525,2.474 -1.460232,1.66938 -4.164785,2.03668 -6.932403,0.94149 z m 9.753512,-53.73953 c -0.395458,-0.29924 -0.71901,-0.78253 -0.71901,-1.07401 0,-1.10304 2.203817,-9.11928 3.022443,-10.9939 1.473225,-3.37368 2.701972,-7.0574 3.116138,-9.34207 0.461897,-2.54802 0.880987,-3.44284 2.059063,-4.39641 0.784864,-0.63531 1.044819,-0.68753 3.421893,-0.68753 1.414876,0 4.702285,-0.13024 7.305357,-0.28942 5.600289,-0.34246 7.199125,-0.13331 8.982237,1.17499 1.501879,1.10195 2.958445,3.13292 4.041721,5.6356 1.011057,2.33583 3.589629,12.03534 3.373598,12.69008 -0.219794,0.66618 -1.972387,2.05162 -2.595306,2.05162 -0.300115,0 -1.942627,0.53151 -3.650027,1.18112 -3.714991,1.41343 -5.069002,1.61133 -13.386305,1.95654 -6.762412,0.28068 -8.57421,0.57166 -11.49681,1.84643 -2.148756,0.93723 -2.527208,0.96412 -3.474992,0.24696 z m 77.705331,-6.02786 c -1.56864,-0.74694 -4.06666,-3.17261 -4.9379,-4.79486 -0.66529,-1.23879 -0.74318,-1.69165 -0.84427,-4.90852 -0.17624,-5.60844 0.23169,-8.41922 1.82869,-12.60021 1.5819,-4.14145 6.08348,-14.4706 6.70265,-15.37961 1.16718,-1.71362 2.74383,-1.76692 3.8895,-0.13152 0.79791,1.13898 0.78483,2.10976 -0.0598,4.43524 -0.78882,2.17189 -0.82907,2.69112 -0.28683,3.69981 0.73182,1.36136 1.4733,1.61028 4.57689,1.53644 l 2.80491,-0.0667 2.56702,1.31253 c 2.95351,1.51014 4.78691,3.07513 5.07362,4.33085 0.16334,0.71538 2.4e-4,1.23192 -0.95076,3.01136 -0.63135,1.18133 -1.71946,2.93424 -2.41803,3.89535 -5.88226,8.09302 -7.82015,10.56911 -9.72202,12.4221 -3.78853,3.69121 -5.69508,4.44182 -8.2237,3.23776 z m 32.14402,-23.74621 c -0.79769,-0.48166 -2.08706,-1.01998 -2.86528,-1.19628 -1.69483,-0.38396 -3.6133,-1.27615 -4.78706,-2.22623 -1.01158,-0.81882 -1.13007,-1.84212 -0.3112,-2.68764 0.63903,-0.65984 3.59652,-1.60724 5.69896,-1.82559 2.59256,-0.26926 4.03143,0.96593 5.34802,4.59097 0.81063,2.23197 0.85499,2.98485 0.20889,3.54498 -0.90013,0.78033 -1.75446,0.72837 -3.29233,-0.20021 z M 60.297396,174.98518 c -2.527035,-0.48094 -4.735202,-2.2358 -5.271347,-4.18921 -0.138691,-0.50532 -0.289161,-4.87602 -0.334365,-9.71267 l -0.08221,-8.7939 0.766242,-2.10004 c 1.348849,-3.69675 2.629632,-5.9126 4.407625,-7.62549 2.014673,-1.94093 3.611677,-2.68598 6.574796,-3.06737 2.883448,-0.37112 4.666322,-0.0215 6.866463,1.3464 3.246348,2.01841 4.708543,4.37072 6.115914,9.83894 0.927189,3.60253 0.940442,3.79169 0.774886,11.05772 -0.04273,1.87691 0.06529,4.34211 0.240118,5.47822 0.423917,2.75468 0.135742,3.74768 -1.486141,5.12102 -2.290788,1.93974 -6.937609,2.9359 -13.481008,2.88999 -2.176238,-0.0153 -4.467188,-0.1249 -5.090986,-0.24361 z m 58.851034,-2.34811 c -0.20345,-0.36569 -0.2067,-1.50952 -0.0108,-3.82941 0.15358,-1.81938 0.32965,-3.38644 0.39128,-3.48235 0.0616,-0.0959 0.5561,-2.30041 1.09884,-4.89887 0.67652,-3.23894 1.2441,-5.23335 1.80509,-6.34283 1.50095,-2.96842 4.31233,-5.36069 5.79411,-4.93032 0.87396,0.25384 2.07155,1.39975 2.70865,2.59176 0.85195,1.59399 0.58032,3.23421 -0.84385,5.09566 -2.45297,3.20614 -3.29246,4.6129 -4.52666,7.58543 -1.65378,3.98306 -3.40961,7.68961 -3.91898,8.27299 -0.5659,0.64811 -2.12406,0.6094 -2.49761,-0.062 z m 45.06339,-4.05667 c -0.77219,-0.78543 -1.40399,-1.60266 -1.40399,-1.81606 0,-0.2134 -0.0725,-0.56961 -0.16098,-0.79156 -0.20458,-0.51283 1.04001,-1.73943 1.76493,-1.73943 1.98884,0 4.35848,4.69079 2.78013,5.50337 -0.98141,0.50525 -1.57169,0.27621 -2.98009,-1.15632 z m -53.26557,0.12458 c -1.20165,-0.61122 -3.18596,-2.64913 -3.40796,-3.50006 -0.23691,-0.908 0.43802,-2.26879 2.41424,-4.86757 0.9506,-1.25007 2.37585,-3.19941 3.16721,-4.33186 1.79215,-2.56462 2.30296,-3.05984 3.15623,-3.05984 1.28822,0 1.22596,1.6996 -0.29406,8.02739 -0.37874,1.57661 -0.87519,3.75251 -1.10324,4.83534 -0.32502,1.54335 -0.58778,2.12479 -1.21589,2.69068 -0.9351,0.84246 -1.39634,0.87742 -2.71653,0.20592 z m 42.44709,-8.02712 c -1.20069,-0.18844 -3.54199,-0.35151 -5.20289,-0.36235 -6.43509,-0.042 -8.87996,-1.17781 -10.93567,-5.08026 -0.81641,-1.54982 -1.83448,-6.65573 -2.28332,-11.45134 -0.15406,-1.64609 -0.52357,-3.91018 -0.82114,-5.03132 -0.29758,-1.12114 -0.54104,-2.42105 -0.54104,-2.88869 0,-1.10033 1.06676,-2.44257 2.53998,-3.19588 1.08112,-0.55283 1.52608,-0.58986 8.10248,-0.67433 6.90999,-0.0887 6.96502,-0.0851 7.88853,0.52175 1.64642,1.08188 1.86891,1.62365 2.89215,7.04248 1.18944,6.29904 1.96694,9.36311 3.71711,14.64871 0.78426,2.36852 1.29492,4.34827 1.20776,4.68232 -0.0831,0.31832 -0.52889,0.94227 -0.99073,1.38656 -0.96653,0.92976 -1.8202,0.99139 -5.57322,0.40235 z m 10.99806,-6.94752 c -1.95597,-1.55095 -3.24253,-5.33121 -4.86805,-14.30367 -1.64378,-9.07328 -1.95799,-9.96738 -5.79841,-16.49975 -2.50648,-4.2634 -4.72442,-7.4115 -7.27516,-10.32624 -1.69813,-1.94044 -1.91957,-2.51629 -1.28742,-3.34792 0.31022,-0.40813 0.60641,-0.45513 1.97841,-0.31402 0.88745,0.0913 3.45551,0.28094 5.70681,0.42147 7.07585,0.44171 8.33004,0.84402 9.39222,3.01279 0.95091,1.94159 2.2392,10.20145 3.70776,23.77236 0.24217,2.23785 0.6203,5.54541 0.84028,7.35013 0.68827,5.64662 0.89226,9.0079 0.58148,9.58142 -0.72251,1.33329 -1.81751,1.57356 -2.97792,0.65343 z m -34.10933,-25.71803 c -1.44636,-0.75602 -5.92582,-4.9362 -6.13058,-5.72095 -0.28807,-1.10416 0.653,-2.35822 2.83022,-3.77152 2.58809,-1.67999 4.73991,-3.34446 6.76401,-5.23202 2.86786,-2.67443 3.48256,-2.61899 6.92006,0.62399 4.81846,4.54579 4.94766,5.44547 1.16711,8.12669 -0.84588,0.59991 -2.34571,1.81931 -3.33295,2.70978 -3.81337,3.43958 -6.12529,4.35784 -8.21787,3.26403 z m -14.41022,-10.0664 c -3.94811,-1.12562 -9.41518,-4.45593 -12.32605,-7.5085 -2.09847,-2.20064 -4.046967,-5.85782 -4.046967,-7.59588 0,-2.2323 2.140407,-4.234335 4.526957,-4.234335 0.55068,0 3.10362,0.579559 5.67321,1.287908 2.5696,0.708347 6.20696,1.605287 8.08303,1.993197 4.93892,1.02121 5.92596,1.36946 7.11009,2.50855 2.04429,1.96654 1.93186,3.63987 -0.58076,8.64369 -2.78254,5.54133 -3.91012,6.19673 -8.43951,4.90537 z m 16.16726,-14.52164 c -1.79106,-0.84934 -8.21953,-8.33626 -9.65819,-11.248435 -1.02741,-2.079713 -0.99297,-2.613522 0.24479,-3.794084 0.88375,-0.842906 1.37689,-1.053865 3.61571,-1.546778 1.42582,-0.313916 3.33428,-0.695983 4.24102,-0.849036 2.32545,-0.392524 4.13466,-1.379668 6.73741,-3.676082 1.24104,-1.094962 2.53992,-2.136436 2.88642,-2.314391 1.2372,-0.6354 2.21025,-0.117804 5.0724,2.698157 3.27827,3.225358 6.07581,6.328252 6.63056,7.354279 1.09838,2.03147 0.13779,3.692773 -2.91812,5.046746 -3.3537,1.485917 -4.02881,1.880482 -8.75874,5.119054 -5.68143,3.89006 -6.21445,4.1015 -8.09326,3.21057 z m 27.01867,-8.627748 c -0.33653,-0.228978 -0.74585,-0.657149 -0.90961,-0.95149 -0.71318,-1.281902 -3.83284,-10.491804 -4.09451,-12.087849 -0.33435,-2.039341 -0.13054,-2.612777 1.1561,-3.252821 0.809,-0.402436 0.93413,-0.386901 2.92541,0.363225 1.14414,0.431004 2.63252,0.870544 3.30751,0.976757 0.89803,0.141308 1.50195,0.457367 2.25129,1.178204 1.10194,1.06002 1.253,1.757283 0.73908,3.411133 -0.15674,0.504368 -0.8283,2.917293 -1.49236,5.362056 -0.66406,2.444761 -1.36471,4.592808 -1.557,4.773435 -0.60541,0.568701 -1.67111,0.67287 -2.32591,0.22735 z M 114.78031,79.686696 c -1.37447,-0.826625 -4.74223,-4.288397 -6.10939,-6.279944 -2.24857,-3.275478 -4.4767,-7.244183 -5.96876,-10.631438 -1.86778,-4.240209 -1.71627,-3.709847 -2.39403,-8.379726 -0.748117,-5.154731 -0.40079,-7.039686 1.66396,-9.030153 2.094,-2.018698 4.24435,-2.262572 7.10203,-0.805459 1.82876,0.932472 3.71764,2.647887 12.39752,11.258964 2.40126,2.38223 5.73504,5.571662 7.40841,7.087626 3.19638,2.895733 3.6882,3.712359 3.24919,5.395012 -0.39626,1.518765 -7.0683,7.40838 -11.85662,10.466207 -2.45978,1.570817 -3.98425,1.825875 -5.49231,0.918911 z m 27.94944,-7.372393 c -1.71437,-1.611493 -3.11703,-3.140556 -3.11703,-3.397923 0,-0.257368 0.2763,-0.752512 0.61398,-1.100324 0.49362,-0.508411 1.09547,-0.69808 3.06995,-0.967495 3.29364,-0.449412 3.41407,-0.432166 4.43436,0.635146 l 0.88686,0.927747 v 2.872353 c 0,2.790387 -0.0205,2.887878 -0.71901,3.416416 -1.31847,0.997665 -1.81175,0.769979 -5.16911,-2.38592 z m 19.53231,-5.370016 c -3.46723,-1.513791 -4.39808,-1.801213 -7.52307,-2.322927 -3.90826,-0.652482 -4.46238,-0.849833 -5.12737,-1.826151 -0.65941,-0.968109 -0.55553,-1.93504 0.49147,-4.574291 0.5167,-1.302477 1.45001,-3.76375 2.07402,-5.469489 1.81082,-4.949853 2.38807,-5.817082 6.52999,-9.810253 5.33465,-5.143091 8.43267,-7.07259 11.35579,-7.07259 2.0381,0 3.97993,1.245955 5.11394,3.281309 0.45916,0.82412 0.57933,1.473577 0.55858,3.018802 -0.0227,1.68396 -0.22998,2.500458 -1.43334,5.643851 -1.74279,4.552435 -3.94722,11.868009 -4.6946,15.579379 -0.30967,1.53777 -0.69781,3.134767 -0.86254,3.548882 -0.27897,0.701325 -1.63297,1.74391 -2.25317,1.734959 -0.15009,-0.0021 -2.05346,-0.781333 -4.2297,-1.731481 z M 126.0933,52.17983 c -1.05242,-0.61738 -1.58924,-1.419615 -1.99013,-2.974123 -0.45962,-1.782198 -0.40038,-3.225071 0.37691,-9.180935 0.86755,-6.647366 2.29983,-13.128046 3.73231,-16.887662 2.95239,-7.748736 6.12648,-11.47953 9.76654,-11.47953 1.59232,0 2.58758,0.492096 4.0212,1.988235 1.45867,1.522285 2.04254,3.377113 2.93342,9.318791 0.55906,3.728581 0.68361,5.581559 0.68818,10.237681 0.004,4.210176 0.14885,6.706655 0.55786,9.622672 0.30377,2.165664 0.62566,4.790015 0.71533,5.831893 0.16253,1.888427 0.16022,1.896858 -0.74488,2.710185 l -0.90791,0.815862 -2.33716,-0.194377 c -4.23776,-0.352449 -11.70402,-0.214466 -13.74699,0.254052 -2.27282,0.521239 -2.06182,0.52556 -3.06468,-0.06274 z"
       id="path3787"
       inkscape:connector-curvature="0" />
  </g>
</svg>
